<svg width="29" height="32" viewBox="0 0 29 32" fill="none" xmlns="http://www.w3.org/2000/svg">
<g filter="url(#filter0_d_133_551)">
<mask id="mask0_133_551" style="mask-type:alpha" maskUnits="userSpaceOnUse" x="4" y="3" width="21" height="20">
<path d="M4.86041 11.2709C4.86041 7.49964 4.86041 5.61402 6.03199 4.44245C7.20356 3.27087 9.08918 3.27087 12.8604 3.27087H16.3543C20.1255 3.27087 22.0111 3.27087 23.1827 4.44245C24.3543 5.61402 24.3543 7.49964 24.3543 11.2709V14.7647C24.3543 18.536 24.3543 20.4216 23.1827 21.5931C22.0111 22.7647 20.1255 22.7647 16.3543 22.7647H12.8604C9.08918 22.7647 7.20356 22.7647 6.03199 21.5931C4.86041 20.4216 4.86041 18.536 4.86041 14.7647V11.2709Z" fill="#273B4A"/>
</mask>
<g mask="url(#mask0_133_551)">
<path d="M7.4703 13.6569L7.30487 13.8223C6.13859 14.9886 5.55545 15.5717 5.25089 16.3099C5.22555 16.3713 5.20174 16.4333 5.1795 16.4959C4.91207 17.2483 4.95542 18.0719 5.04211 19.719L5.40191 26.5552H24.3543V21.4189C24.3543 19.6993 24.3543 18.8395 24.0216 18.0757C24.0128 18.0554 24.0038 18.0352 23.9946 18.0151C23.6494 17.2568 23.0103 16.6817 21.7322 15.5314L21.4998 15.3222C20.4162 14.3469 19.8743 13.8593 19.2389 13.7867C19.053 13.7654 18.8651 13.7704 18.6805 13.8013C18.0498 13.9073 17.5343 14.4227 16.5034 15.4536C15.7376 16.2195 15.3546 16.6024 14.9344 16.5982C14.8141 16.5969 14.695 16.574 14.5827 16.5304C14.191 16.3784 13.9748 15.8738 13.5423 14.8646C12.6274 12.73 12.17 11.6627 11.3234 11.3769C11.1522 11.3191 10.974 11.2848 10.7936 11.2749C9.90139 11.2258 9.09103 12.0361 7.4703 13.6569Z" fill="#7E869E" fill-opacity="0.25" stroke="black"/>
</g>
<path d="M4.86041 11.2709C4.86041 7.49964 4.86041 5.61402 6.03199 4.44245C7.20356 3.27087 9.08918 3.27087 12.8604 3.27087H16.3543C20.1255 3.27087 22.0111 3.27087 23.1827 4.44245C24.3543 5.61402 24.3543 7.49964 24.3543 11.2709V14.7647C24.3543 18.536 24.3543 20.4216 23.1827 21.5931C22.0111 22.7647 20.1255 22.7647 16.3543 22.7647H12.8604C9.08918 22.7647 7.20356 22.7647 6.03199 21.5931C4.86041 20.4216 4.86041 18.536 4.86041 14.7647V11.2709Z" stroke="black" stroke-width="1.2"/>
<ellipse cx="19.4808" cy="8.14432" rx="1.62449" ry="1.62449" fill="black"/>
</g>
<defs>
<filter id="filter0_d_133_551" x="-2.38855" y="0.0219116" width="33.9918" height="33.9918" filterUnits="userSpaceOnUse" color-interpolation-filters="sRGB">
<feFlood flood-opacity="0" result="BackgroundImageFix"/>
<feColorMatrix in="SourceAlpha" type="matrix" values="0 0 0 0 0 0 0 0 0 0 0 0 0 0 0 0 0 0 127 0" result="hardAlpha"/>
<feOffset dy="4"/>
<feGaussianBlur stdDeviation="2"/>
<feComposite in2="hardAlpha" operator="out"/>
<feColorMatrix type="matrix" values="0 0 0 0 0 0 0 0 0 0 0 0 0 0 0 0 0 0 0.25 0"/>
<feBlend mode="normal" in2="BackgroundImageFix" result="effect1_dropShadow_133_551"/>
<feBlend mode="normal" in="SourceGraphic" in2="effect1_dropShadow_133_551" result="shape"/>
</filter>
</defs>
</svg>
