<svg width="31" height="31" viewBox="0 0 31 31" fill="none" xmlns="http://www.w3.org/2000/svg">
<g clip-path="url(#clip0_133_829)">
<path d="M15.4999 9.21082C14.674 9.21082 13.8562 9.37349 13.0932 9.68955C12.3302 10.0056 11.6369 10.4689 11.0529 11.0529C10.4689 11.6369 10.0056 12.3302 9.68955 13.0932C9.37349 13.8562 9.21082 14.674 9.21082 15.4999C9.21082 16.3258 9.37349 17.1437 9.68955 17.9067C10.0056 18.6697 10.4689 19.363 11.0529 19.947C11.6369 20.531 12.3302 20.9943 13.0932 21.3103C13.8562 21.6264 14.674 21.7891 15.4999 21.7891C17.1679 21.7891 18.7676 21.1265 19.947 19.947C21.1265 18.7676 21.7891 17.1679 21.7891 15.4999C21.7891 13.832 21.1265 12.2323 19.947 11.0529C18.7676 9.87342 17.1679 9.21082 15.4999 9.21082ZM11.1483 15.4999C11.1483 14.3458 11.6068 13.239 12.4229 12.4229C13.239 11.6068 14.3458 11.1483 15.4999 11.1483C16.6541 11.1483 17.7609 11.6068 18.577 12.4229C19.3931 13.239 19.8516 14.3458 19.8516 15.4999C19.8516 16.6541 19.3931 17.7609 18.577 18.577C17.7609 19.3931 16.6541 19.8516 15.4999 19.8516C14.3458 19.8516 13.239 19.3931 12.4229 18.577C11.6068 17.7609 11.1483 16.6541 11.1483 15.4999Z" fill="black"/>
<path d="M18.9798 2.60207C17.9587 -0.866055 13.0413 -0.866055 12.0203 2.60207L11.8381 3.22013C11.7668 3.46223 11.6422 3.6853 11.4735 3.87299C11.3048 4.06068 11.0962 4.20824 10.8631 4.30485C10.6299 4.40145 10.3781 4.44466 10.1261 4.4313C9.87405 4.41794 9.62821 4.34835 9.40657 4.22763L8.84082 3.91763C5.66332 2.18938 2.18938 5.66526 3.91957 8.84082L4.22763 9.40657C4.34835 9.62821 4.41794 9.87405 4.4313 10.1261C4.44466 10.3781 4.40145 10.6299 4.30485 10.8631C4.20824 11.0962 4.06068 11.3048 3.87299 11.4735C3.6853 11.6422 3.46223 11.7668 3.22013 11.8381L2.60207 12.0203C-0.866055 13.0413 -0.866055 17.9587 2.60207 18.9798L3.22013 19.1619C3.46223 19.2332 3.6853 19.3578 3.87299 19.5265C4.06068 19.6952 4.20824 19.9038 4.30485 20.1369C4.40145 20.3701 4.44466 20.6219 4.4313 20.8739C4.41794 21.126 4.34835 21.3718 4.22763 21.5934L3.91763 22.1592C2.18938 25.3367 5.66332 28.8126 8.84082 27.0804L9.40657 26.7724C9.62821 26.6517 9.87405 26.5821 10.1261 26.5687C10.3781 26.5554 10.6299 26.5986 10.8631 26.6952C11.0962 26.7918 11.3048 26.9393 11.4735 27.127C11.6422 27.3147 11.7668 27.5378 11.8381 27.7799L12.0203 28.3979C13.0413 31.8661 17.9587 31.8661 18.9798 28.3979L19.1619 27.7799C19.2332 27.5378 19.3578 27.3147 19.5265 27.127C19.6952 26.9393 19.9038 26.7918 20.1369 26.6952C20.3701 26.5986 20.6219 26.5554 20.8739 26.5687C21.126 26.5821 21.3718 26.6517 21.5934 26.7724L22.1592 27.0824C25.3367 28.8126 28.8126 25.3348 27.0804 22.1592L26.7724 21.5934C26.6517 21.3718 26.5821 21.126 26.5687 20.8739C26.5554 20.6219 26.5986 20.3701 26.6952 20.1369C26.7918 19.9038 26.9393 19.6952 27.127 19.5265C27.3147 19.3578 27.5378 19.2332 27.7799 19.1619L28.3979 18.9798C31.8661 17.9587 31.8661 13.0413 28.3979 12.0203L27.7799 11.8381C27.5378 11.7668 27.3147 11.6422 27.127 11.4735C26.9393 11.3048 26.7918 11.0962 26.6952 10.8631C26.5986 10.6299 26.5554 10.3781 26.5687 10.1261C26.5821 9.87405 26.6517 9.62821 26.7724 9.40657L27.0824 8.84082C28.8126 5.66332 25.3348 2.18938 22.1592 3.91957L21.5934 4.22763C21.3718 4.34835 21.126 4.41794 20.8739 4.4313C20.6219 4.44466 20.3701 4.40145 20.1369 4.30485C19.9038 4.20824 19.6952 4.06068 19.5265 3.87299C19.3578 3.6853 19.2332 3.46223 19.1619 3.22013L18.9798 2.60207ZM13.8783 3.15038C14.3549 1.53257 16.6451 1.53257 17.1217 3.15038L17.3038 3.76845C17.4569 4.28786 17.7243 4.76643 18.0864 5.16906C18.4485 5.5717 18.8961 5.88819 19.3965 6.09534C19.8968 6.30249 20.4371 6.39505 20.9779 6.36623C21.5186 6.3374 22.046 6.18792 22.5215 5.92876L23.0853 5.61876C24.5656 4.8147 26.1853 6.43251 25.3793 7.91469L25.0713 8.48044C24.8125 8.95596 24.6634 9.48335 24.6349 10.024C24.6063 10.5646 24.6992 11.1047 24.9065 11.6048C25.1138 12.1049 25.4304 12.5523 25.833 12.9142C26.2357 13.276 26.7142 13.5432 27.2335 13.6962L27.8496 13.8783C29.4674 14.3549 29.4674 16.6451 27.8496 17.1217L27.2316 17.3038C26.7122 17.4569 26.2336 17.7243 25.831 18.0864C25.4283 18.4485 25.1118 18.8961 24.9047 19.3965C24.6975 19.8968 24.605 20.4371 24.6338 20.9779C24.6626 21.5186 24.8121 22.046 25.0713 22.5215L25.3813 23.0853C26.1853 24.5656 24.5675 26.1853 23.0853 25.3793L22.5215 25.0713C22.0459 24.8121 21.5184 24.6627 20.9775 24.634C20.4367 24.6053 19.8962 24.698 19.3959 24.9054C18.8955 25.1127 18.448 25.4294 18.086 25.8323C17.7239 26.2351 17.4567 26.7139 17.3038 27.2335L17.1217 27.8496C16.6451 29.4674 14.3549 29.4674 13.8783 27.8496L13.6962 27.2316C13.543 26.7124 13.2757 26.2341 12.9137 25.8317C12.5517 25.4293 12.1043 25.1129 11.6043 24.9058C11.1042 24.6986 10.5641 24.606 10.0236 24.6346C9.48309 24.6633 8.95583 24.8125 8.48044 25.0713L7.91469 25.3813C6.43444 26.1853 4.81469 24.5675 5.6207 23.0853L5.92876 22.5215C6.18829 22.046 6.33806 21.5184 6.36707 20.9774C6.39609 20.4364 6.30361 19.8958 6.09644 19.3952C5.88926 18.8947 5.57263 18.4468 5.1698 18.0846C4.76696 17.7224 4.28813 17.4549 3.76845 17.3019L3.15038 17.1198C1.53257 16.6431 1.53257 14.353 3.15038 13.8764L3.76845 13.6943C4.28732 13.541 4.76537 13.2737 5.1676 12.9119C5.56983 12.55 5.88606 12.1028 6.09316 11.603C6.30026 11.1032 6.39298 10.5634 6.36453 10.0231C6.33609 9.48284 6.1872 8.95576 5.92876 8.48044L5.61876 7.91469C4.8147 6.43444 6.43251 4.81469 7.91469 5.6207L8.48044 5.92876C8.95583 6.18756 9.48309 6.33674 10.0236 6.36538C10.5641 6.39401 11.1042 6.30138 11.6043 6.09425C12.1043 5.88713 12.5517 5.57076 12.9137 5.16833C13.2757 4.7659 13.543 4.28759 13.6962 3.76845L13.8783 3.15038Z" fill="black"/>
</g>
<defs>
<clipPath id="clip0_133_829">
<rect width="31" height="31" fill="white"/>
</clipPath>
</defs>
</svg>
