<svg width="37" height="38" viewBox="0 0 37 38" fill="none" xmlns="http://www.w3.org/2000/svg">
<path d="M20.1349 3.56256C19.7013 3.11731 19.1132 2.86719 18.5 2.86719C17.8868 2.86719 17.2987 3.11731 16.8651 3.56256L1.49387 19.3468C1.38637 19.4572 1.30109 19.5883 1.24291 19.7325C1.18473 19.8768 1.15479 20.0314 1.15479 20.1876C1.15479 20.3437 1.18473 20.4983 1.24291 20.6426C1.30109 20.7868 1.38637 20.9179 1.49387 21.0283C1.71098 21.2513 2.00545 21.3766 2.3125 21.3766C2.46453 21.3766 2.61507 21.3458 2.75553 21.286C2.89599 21.2263 3.02362 21.1387 3.13112 21.0283L4.625 19.4917V32.0626C4.625 33.0074 4.99045 33.9135 5.64097 34.5816C6.29149 35.2497 7.17378 35.6251 8.09375 35.6251H28.9062C29.8262 35.6251 30.7085 35.2497 31.359 34.5816C32.0095 33.9135 32.375 33.0074 32.375 32.0626V19.4917L33.8689 21.0283C34.086 21.2513 34.3805 21.3766 34.6875 21.3766C34.9945 21.3766 35.289 21.2513 35.5061 21.0283C35.7232 20.8053 35.8452 20.5029 35.8452 20.1876C35.8452 19.8722 35.7232 19.5698 35.5061 19.3468L30.0625 13.7584V5.93756C30.0625 5.62261 29.9407 5.32057 29.7238 5.09787C29.507 4.87517 29.2129 4.75006 28.9062 4.75006H26.5937C26.2871 4.75006 25.993 4.87517 25.7762 5.09787C25.5593 5.32057 25.4375 5.62261 25.4375 5.93756V9.00843L20.1349 3.56256ZM30.0625 17.1167V32.0626C30.0625 32.3775 29.9407 32.6795 29.7238 32.9022C29.507 33.1249 29.2129 33.2501 28.9062 33.2501H8.09375C7.78709 33.2501 7.49299 33.1249 7.27615 32.9022C7.05932 32.6795 6.9375 32.3775 6.9375 32.0626V17.1167L18.5 5.24168L30.0625 17.1167Z" fill="black"/>
</svg>
