<svg width="28" height="34" viewBox="0 0 28 34" fill="none" xmlns="http://www.w3.org/2000/svg">
<g filter="url(#filter0_d_133_546)">
<path d="M12.7688 4.03506L13.4559 4.76162L12.7688 4.03506C11.8342 4.91894 10.0435 6.72396 8.47952 8.95691C6.93491 11.1621 5.50665 13.9309 5.50665 16.7164C5.50665 21.1923 9.43034 24.6785 14.0876 24.6785C18.7448 24.6785 22.6685 21.1923 22.6685 16.7164C22.6685 13.9309 21.2403 11.1621 19.6957 8.95691C18.1316 6.72396 16.341 4.91894 15.4064 4.03506C14.6615 3.33067 13.5137 3.33067 12.7688 4.03506Z" stroke="white" stroke-width="2"/>
<path d="M14.0876 20.4296C13.5187 20.4296 12.9554 20.3175 12.4298 20.0998C11.9042 19.8821 11.4267 19.563 11.0244 19.1608C10.6222 18.7585 10.3031 18.2809 10.0854 17.7554C9.86766 17.2298 9.75562 16.6665 9.75562 16.0976" stroke="white" stroke-width="2" stroke-linecap="round"/>
</g>
<defs>
<filter id="filter0_d_133_546" x="-2.90833" y="0.93573" width="33.9918" height="33.9918" filterUnits="userSpaceOnUse" color-interpolation-filters="sRGB">
<feFlood flood-opacity="0" result="BackgroundImageFix"/>
<feColorMatrix in="SourceAlpha" type="matrix" values="0 0 0 0 0 0 0 0 0 0 0 0 0 0 0 0 0 0 127 0" result="hardAlpha"/>
<feOffset dy="4"/>
<feGaussianBlur stdDeviation="2"/>
<feComposite in2="hardAlpha" operator="out"/>
<feColorMatrix type="matrix" values="0 0 0 0 0 0 0 0 0 0 0 0 0 0 0 0 0 0 0.25 0"/>
<feBlend mode="normal" in2="BackgroundImageFix" result="effect1_dropShadow_133_546"/>
<feBlend mode="normal" in="SourceGraphic" in2="effect1_dropShadow_133_546" result="shape"/>
</filter>
</defs>
</svg>
