<?xml version="1.0" standalone="no"?>
<!DOCTYPE svg PUBLIC "-//W3C//DTD SVG 20010904//EN"
 "http://www.w3.org/TR/2001/REC-SVG-20010904/DTD/svg10.dtd">
<svg version="1.0" xmlns="http://www.w3.org/2000/svg"
 width="500" height="500" viewBox="0 0 512.000000 512.000000"
 preserveAspectRatio="xMidYMid meet">

<g transform="translate(0.000000,512.000000) scale(0.100000,-0.100000)"
>
<path d="M3595 4595 l-25 -24 0 -361 0 -360 -70 58 c-70 59 -173 117 -226 128
-42 8 -84 -27 -84 -70 0 -44 15 -60 92 -96 157 -73 264 -223 284 -399 l6 -59
-48 -12 c-28 -6 -198 -15 -399 -20 -281 -7 -373 -13 -469 -29 -229 -40 -465
-136 -661 -267 -55 -37 -133 -87 -173 -111 -84 -50 -261 -128 -270 -119 -10
11 26 154 55 213 39 80 131 170 218 212 91 44 105 57 105 98 0 41 -30 73 -69
73 -45 0 -180 -73 -249 -135 l-62 -57 0 360 c0 348 -1 360 -21 386 -26 33 -79
36 -109 6 -19 -19 -20 -33 -20 -386 l0 -365 -54 47 c-64 57 -166 120 -217 136
-74 22 -131 -21 -112 -85 7 -27 21 -38 91 -73 171 -84 266 -222 287 -415 l7
-65 -54 -12 c-110 -25 -267 -31 -753 -32 -471 0 -502 -1 -531 -19 -64 -39 -64
-42 -64 -534 0 -494 -2 -480 67 -493 26 -5 37 -1 57 19 25 25 26 31 26 141 l0
114 548 5 c569 5 597 7 776 53 38 9 78 26 88 36 26 26 24 82 -4 108 -26 24
-48 25 -114 5 -147 -43 -200 -47 -756 -52 l-538 -5 0 236 0 236 503 0 c541 0
624 6 812 54 196 50 364 128 574 268 155 103 294 173 431 216 183 58 222 63
570 72 179 4 368 14 420 20 251 31 514 128 715 263 44 30 606 453 783 590 9 7
12 -35 12 -204 l0 -214 -406 -310 c-224 -170 -436 -330 -473 -354 -85 -56
-264 -143 -364 -176 -175 -58 -237 -66 -602 -75 -214 -6 -376 -14 -437 -24
-270 -43 -467 -121 -710 -282 -70 -47 -153 -99 -185 -117 -88 -50 -103 -110
-38 -153 24 -16 28 -15 71 1 24 9 113 62 197 117 161 106 242 150 359 197 204
81 339 100 768 111 279 7 351 12 432 29 210 46 429 137 596 249 48 32 245 179
437 326 l350 267 5 -1096 5 -1097 24 -19 c32 -26 67 -24 96 6 l25 24 0 1431
c0 1222 -2 1436 -14 1465 -19 44 -69 75 -123 75 -39 0 -56 -10 -200 -120 -472
-360 -682 -515 -771 -568 -103 -60 -267 -130 -279 -118 -4 4 -2 32 5 63 31
150 128 272 268 340 92 45 115 73 95 120 -15 36 -52 56 -89 47 -56 -13 -169
-81 -229 -138 l-63 -58 0 370 0 371 -26 20 c-35 28 -69 26 -99 -4z"/>
<path d="M4448 2594 c-76 -41 -74 -159 2 -199 50 -26 97 -20 136 19 29 29 34
41 34 81 0 40 -5 52 -34 81 -27 27 -42 34 -72 34 -22 -1 -51 -7 -66 -16z"/>
<path d="M3234 2146 c-28 -28 -34 -41 -34 -78 0 -50 18 -82 60 -103 82 -42
170 15 170 111 0 28 -8 44 -34 70 -29 29 -41 34 -81 34 -40 0 -52 -5 -81 -34z"/>
<path d="M3914 1846 c-26 -26 -34 -42 -34 -70 0 -49 23 -92 60 -111 82 -42
170 14 170 111 0 28 -8 44 -34 70 -29 29 -41 34 -81 34 -40 0 -52 -5 -81 -34z"/>
<path d="M1950 1832 c-50 -25 -76 -81 -61 -132 21 -71 99 -107 160 -75 37 19
71 69 71 105 0 53 -65 120 -117 120 -10 0 -34 -8 -53 -18z"/>
<path d="M858 1714 c-60 -32 -76 -121 -32 -173 48 -57 125 -58 177 -1 32 35
37 101 11 138 -34 48 -104 65 -156 36z"/>
<path d="M25 1535 l-25 -24 0 -454 0 -454 23 -34 c12 -18 34 -39 47 -46 37
-19 4943 -19 4980 0 13 7 35 28 47 46 22 33 23 41 23 258 l0 224 -25 24 c-31
32 -69 32 -100 0 -25 -24 -25 -25 -25 -220 l0 -195 -2410 0 -2410 0 0 425 0
426 -25 24 c-13 14 -36 25 -50 25 -14 0 -37 -11 -50 -25z"/>
<path d="M2753 1321 c-40 -25 -53 -49 -53 -101 0 -110 124 -156 201 -74 19 20
24 37 24 75 0 41 -5 53 -31 80 -40 40 -96 48 -141 20z"/>
<path d="M490 1153 c-105 -95 5 -253 130 -188 74 38 78 150 8 199 -37 26 -103
21 -138 -11z"/>
<path d="M4374 1066 c-29 -29 -34 -41 -34 -81 0 -40 5 -52 34 -81 26 -26 42
-34 70 -34 96 0 153 88 111 170 -21 42 -53 60 -103 60 -37 0 -50 -6 -78 -34z"/>
<path d="M1520 1057 c-81 -28 -103 -129 -41 -191 27 -26 39 -31 80 -31 39 0
55 5 75 24 96 90 10 239 -114 198z"/>
</g>
</svg>
