<svg width="27" height="33" viewBox="0 0 27 33" fill="none" xmlns="http://www.w3.org/2000/svg">
<g filter="url(#filter0_d_133_547)">
<path d="M16.7216 14.178L16.0503 14.9192L16.7216 14.178ZM9.45348 14.178L8.78214 13.4369L9.45348 14.178ZM10.8386 7.11359C10.8386 6.00902 11.734 5.11359 12.8386 5.11359V3.11359C10.6294 3.11359 8.83859 4.90445 8.83859 7.11359H10.8386ZM10.8386 13.3606V7.11359H8.83859V13.3606H10.8386ZM8.67261 18.1925C8.67261 16.8945 9.23147 15.7284 10.1248 14.9192L8.78214 13.4369C7.48788 14.6092 6.67261 16.3063 6.67261 18.1925H8.67261ZM13.0876 22.6074C10.6493 22.6074 8.67261 20.6308 8.67261 18.1925H6.67261C6.67261 21.7354 9.54468 24.6074 13.0876 24.6074V22.6074ZM17.5025 18.1925C17.5025 20.6308 15.5259 22.6074 13.0876 22.6074V24.6074C16.6304 24.6074 19.5025 21.7354 19.5025 18.1925H17.5025ZM16.0503 14.9192C16.9437 15.7284 17.5025 16.8945 17.5025 18.1925H19.5025C19.5025 16.3063 18.6872 14.6092 17.393 13.4369L16.0503 14.9192ZM15.3365 7.11359V13.3606H17.3365V7.11359H15.3365ZM13.3365 5.11359C14.4411 5.11359 15.3365 6.00902 15.3365 7.11359H17.3365C17.3365 4.90445 15.5457 3.11359 13.3365 3.11359V5.11359ZM12.8386 5.11359H13.3365V3.11359H12.8386V5.11359ZM17.393 13.4369C17.365 13.4116 17.3492 13.3878 17.3417 13.3723C17.3348 13.3581 17.3365 13.3547 17.3365 13.3606H15.3365C15.3365 14.0045 15.6455 14.5526 16.0503 14.9192L17.393 13.4369ZM8.83859 13.3606C8.83859 13.3547 8.84028 13.3581 8.8334 13.3723C8.8259 13.3878 8.81008 13.4116 8.78214 13.4369L10.1248 14.9192C10.5296 14.5526 10.8386 14.0045 10.8386 13.3606H8.83859Z" fill="white"/>
<circle cx="13.0876" cy="18.1925" r="2.16598" fill="white"/>
</g>
<defs>
<filter id="filter0_d_133_547" x="-3.90833" y="0.864624" width="33.9918" height="33.9918" filterUnits="userSpaceOnUse" color-interpolation-filters="sRGB">
<feFlood flood-opacity="0" result="BackgroundImageFix"/>
<feColorMatrix in="SourceAlpha" type="matrix" values="0 0 0 0 0 0 0 0 0 0 0 0 0 0 0 0 0 0 127 0" result="hardAlpha"/>
<feOffset dy="4"/>
<feGaussianBlur stdDeviation="2"/>
<feComposite in2="hardAlpha" operator="out"/>
<feColorMatrix type="matrix" values="0 0 0 0 0 0 0 0 0 0 0 0 0 0 0 0 0 0 0.25 0"/>
<feBlend mode="normal" in2="BackgroundImageFix" result="effect1_dropShadow_133_547"/>
<feBlend mode="normal" in="SourceGraphic" in2="effect1_dropShadow_133_547" result="shape"/>
</filter>
</defs>
</svg>
