<svg width="32" height="34" viewBox="0 0 32 34" fill="none" xmlns="http://www.w3.org/2000/svg">
<g filter="url(#filter0_d_133_550)">
<path d="M13.3585 18.6382L13.3585 14.9344" stroke="black" stroke-width="2" stroke-linecap="round"/>
<path d="M18.2969 18.6382L18.2969 14.9344" stroke="black" stroke-width="2" stroke-linecap="round"/>
<path d="M4.71619 8.76129H26.9392V8.76129C25.3398 8.76129 24.5401 8.76129 23.9948 9.19252C23.873 9.28882 23.7629 9.39897 23.6666 9.52074C23.2353 10.0661 23.2353 10.8658 23.2353 12.4651V20.8112C23.2353 22.6968 23.2353 23.6397 22.6496 24.2254C22.0638 24.8112 21.121 24.8112 19.2353 24.8112H12.42C10.5344 24.8112 9.59159 24.8112 9.0058 24.2254C8.42002 23.6397 8.42002 22.6968 8.42002 20.8112V12.4651C8.42002 10.8658 8.42002 10.0661 7.98879 9.52074C7.89249 9.39897 7.78234 9.28882 7.66056 9.19252C7.11524 8.76129 6.31556 8.76129 4.71619 8.76129V8.76129Z" stroke="black" stroke-width="2" stroke-linecap="round"/>
<path d="M13.4426 4.28041C13.5833 4.14915 13.8933 4.03316 14.3245 3.95044C14.7557 3.86772 15.2841 3.82288 15.8277 3.82288C16.3712 3.82288 16.8996 3.86772 17.3308 3.95044C17.7621 4.03316 18.0721 4.14915 18.2127 4.28041" stroke="black" stroke-width="2" stroke-linecap="round"/>
</g>
<defs>
<filter id="filter0_d_133_550" x="-2.98767" y="0.119019" width="37.6306" height="37.6306" filterUnits="userSpaceOnUse" color-interpolation-filters="sRGB">
<feFlood flood-opacity="0" result="BackgroundImageFix"/>
<feColorMatrix in="SourceAlpha" type="matrix" values="0 0 0 0 0 0 0 0 0 0 0 0 0 0 0 0 0 0 127 0" result="hardAlpha"/>
<feOffset dy="4"/>
<feGaussianBlur stdDeviation="2"/>
<feComposite in2="hardAlpha" operator="out"/>
<feColorMatrix type="matrix" values="0 0 0 0 0 0 0 0 0 0 0 0 0 0 0 0 0 0 0.25 0"/>
<feBlend mode="normal" in2="BackgroundImageFix" result="effect1_dropShadow_133_550"/>
<feBlend mode="normal" in="SourceGraphic" in2="effect1_dropShadow_133_550" result="shape"/>
</filter>
</defs>
</svg>
